<svg xmlns="http://www.w3.org/2000/svg" width="120" height="120" viewBox="0 0 120 120" fill="none">
  <rect width="120" height="120" rx="60" fill="white"/>
  <path d="M78.2885 75.8382L78.2885 75.8382C78.7346 75.0305 79.7509 74.7373 80.5586 75.1834C81.3666 75.6295 81.6593 76.646 81.2137 77.4536L81.2136 77.4537C79.3294 80.8653 77.2533 84.8462 76.1582 89.4045L76.1581 89.4049C76.1217 89.5559 76.0858 89.7115 76.0485 89.873L76.0397 89.911L76.0397 89.9113L76.0237 89.9807C75.6319 91.6831 75.0897 94.0395 73.0822 95.303L73.0822 95.303C71.9348 96.0251 70.5717 96.3817 69.2409 96.3817C67.9289 96.3817 66.6227 96.0349 65.5696 95.3189C63.6173 93.9922 62.6743 91.8439 62.2117 89.717C61.7502 87.595 61.7502 85.4141 61.7502 83.926V83.9105C61.7502 82.0529 61.5465 80.42 61.1326 78.9122C60.6942 77.3157 60.1249 76.099 59.4055 75.1675L59.4054 75.1675C59.2041 74.9068 58.9167 74.6383 58.5402 74.3741L78.2885 75.8382ZM78.2885 75.8382C76.3256 79.3925 74.1064 83.6407 72.9093 88.6231M78.2885 75.8382L72.7835 89.1612M72.7835 89.1612L72.7836 89.161L72.7961 89.1064C72.8337 88.9437 72.8711 88.7812 72.9093 88.6231M72.7835 89.1612C72.6205 89.8691 72.4563 90.5771 72.2145 91.1869M72.7835 89.1612L72.2145 91.1869M72.9093 88.6231L73.3953 88.7404L72.9092 88.6236C72.9092 88.6235 72.9093 88.6233 72.9093 88.6231ZM67.448 92.5553L67.448 92.5553C67.9093 92.8688 68.5778 93.0395 69.3024 93.0279C70.0237 93.0163 70.7471 92.8244 71.3024 92.475L67.448 92.5553ZM67.448 92.5553C66.3317 91.7968 65.7207 90.342 65.4052 88.6497C65.093 86.9753 65.0918 85.1932 65.0918 83.9105C65.0918 81.7653 64.8522 79.8391 64.3549 78.0276L64.3549 78.0276M67.448 92.5553L64.3549 78.0276M64.3549 78.0276C63.81 76.0432 63.0598 74.4328 62.0504 73.1257L64.3549 78.0276ZM60.4578 71.6378L60.4581 71.638C61.0939 72.0839 61.6316 72.5831 62.0503 73.1256L60.4578 71.6378ZM60.4578 71.6378C57.4438 69.527 53.3967 69.5269 50.3832 71.6379L50.3832 71.6379M60.4578 71.6378L50.3832 71.6379M50.3832 71.6379C49.7486 72.0825 49.2106 72.5815 48.7906 73.1252L48.7905 73.1253M50.3832 71.6379L48.7905 73.1253M48.7905 73.1253C47.7809 74.4326 47.0308 76.043 46.4857 78.0275M48.7905 73.1253L46.4857 78.0275M52.3006 74.3746L52.3006 74.3746C51.9247 74.6379 51.6371 74.9063 51.4349 75.1679C50.716 76.0991 50.1464 77.3158 49.7079 78.9124L52.3006 74.3746ZM52.3006 74.3746C54.1656 73.0678 56.6743 73.0675 58.5401 74.3741L52.3006 74.3746ZM72.2145 91.1869C71.9708 91.801 71.6766 92.2394 71.3025 92.475L72.2145 91.1869ZM46.4857 78.0275C46.2414 78.9173 46.7645 79.8367 47.6544 80.0811M46.4857 78.0275L47.6544 80.0811M47.6544 80.0811C48.5436 80.3254 49.4635 79.8023 49.7079 78.9124L47.6544 80.0811Z" fill="#06AEEF" stroke="#06AEEF"/>
  <path d="M43.3908 92.5532L43.3909 92.5531C44.5071 91.7945 45.118 90.3397 45.4335 88.6473C45.7457 86.9729 45.7469 85.1908 45.7469 83.9082C45.7469 82.9855 46.495 82.2374 47.4177 82.2374C48.3403 82.2374 49.0884 82.9854 49.0883 83.908C49.0883 83.9081 49.0883 83.9081 49.0883 83.9081V83.9235C49.0883 85.4116 49.0883 87.5926 48.6268 89.7146C48.1643 91.8415 47.2213 93.9898 45.269 95.3166C44.2161 96.0323 42.9098 96.379 41.598 96.379C40.267 96.3792 38.9042 96.0226 37.7568 95.3007L37.7568 95.3007C35.7484 94.0368 35.2062 91.6799 34.8144 89.9772L34.7984 89.9075C34.7984 89.9075 34.7983 89.9074 34.7983 89.9074C34.7582 89.7332 34.7193 89.5649 34.6803 89.4022L43.3908 92.5532ZM43.3908 92.5532C42.9297 92.8666 42.2612 93.0373 41.5366 93.0256C40.8152 93.014 40.0918 92.822 39.5365 92.4726L39.5365 92.4726C39.162 92.237 38.8676 91.7984 38.6239 91.1841C38.3819 90.5742 38.2178 89.866 38.0547 89.1577L38.0547 89.1576L38.0475 89.1266C38.0083 88.9562 37.9691 88.7864 37.9295 88.6214L37.4434 88.7382L37.9295 88.6214C36.5812 83.01 34.033 78.468 31.3745 73.7292L31.3616 73.7063M43.3908 92.5532L31.3616 73.7063M31.3616 73.7063L31.3616 73.7062L31.3381 73.6642C30.7661 72.6445 30.1772 71.5946 29.6042 70.5386C26.5721 64.9509 24.7883 60.2269 23.9689 55.6605C22.7627 48.9338 23.9289 39.6972 29.1295 34.1669L29.1295 34.1669C29.7617 33.4946 29.7292 32.4374 29.0571 31.8052L29.057 31.8051C28.3848 31.1732 27.3276 31.2054 26.6953 31.8778C23.9283 34.8201 21.9432 38.8409 20.9334 43.4901C20.0355 47.6245 19.945 52.1531 20.6796 56.2504L20.6797 56.2505C21.5688 61.2049 23.4778 66.2549 26.6671 72.1323C27.2597 73.2243 27.8643 74.3021 28.4471 75.341L28.8831 75.0963L28.4471 75.341C31.0369 79.9572 33.4428 84.2518 34.6803 89.402L31.3616 73.7063Z" fill="#06AEEF" stroke="#06AEEF"/>
  <path d="M78.2844 27.7423L78.2844 27.7423C78.5602 27.8615 78.8326 27.9888 79.1011 28.1224C81.057 26.0562 82.7167 23.7019 84.0319 21.1037C84.3164 20.5417 84.8926 20.1875 85.5225 20.1875C86.1523 20.1875 86.7285 20.5417 87.013 21.1037C89.8907 26.7882 94.4149 31.3124 100.099 34.1899L99.8734 34.636L100.099 34.1899C100.661 34.4743 101.016 35.0504 101.016 35.6804C101.016 36.3102 100.661 36.8865 100.1 37.171L100.099 37.171C96.215 39.1374 92.874 41.8729 90.2291 45.2204C90.8192 48.8912 90.7979 52.6878 90.1587 56.2519L90.1587 56.2519C89.2696 61.2068 87.3605 66.2568 84.1713 72.1338L84.1713 72.1339C83.8682 72.6923 83.2932 73.0079 82.7017 73.0079C82.4318 73.0079 82.1583 72.9423 81.906 72.8053L82.1444 72.3659L81.906 72.8053C81.095 72.3652 80.7941 71.3511 81.2343 70.54C84.2663 64.9527 86.0501 60.2285 86.8696 55.6618C86.8696 55.6618 86.8696 55.6618 86.8696 55.6618L87.3618 55.7501C87.7547 53.5597 87.8866 51.2048 87.7612 48.8707L78.2844 27.7423ZM78.2844 27.7423C74.1948 25.9743 68.9261 26.071 63.8309 27.944C58.7263 29.702 52.1144 29.7019 47.0089 27.944C41.9142 26.0712 36.6454 25.9743 32.5551 27.7421C31.708 28.1081 31.3183 29.0916 31.6842 29.9386L31.6843 29.9386C32.0502 30.7851 33.0333 31.1758 33.8807 30.8094C37.1362 29.4024 41.5032 29.4769 45.8691 31.0853C45.882 31.0901 45.894 31.0943 45.9007 31.0966L45.9021 31.0971L45.9028 31.0973C48.8459 32.1133 52.1365 32.6187 55.4201 32.6186C58.7037 32.6186 61.9938 32.1133 64.9368 31.0973L64.9375 31.097C64.9439 31.0948 64.9568 31.0904 64.9706 31.0853C69.1101 29.5606 73.2506 29.4144 76.4429 30.6022C74.7651 31.9838 72.9264 33.1871 70.9457 34.1899L71.1715 34.636L70.9457 34.1899C70.3839 34.4744 70.0297 35.0507 70.0297 35.6804C70.0297 36.3101 70.3837 36.8866 70.9457 37.171C76.6301 40.0487 81.1542 44.5729 84.0319 50.2572C84.3163 50.8192 84.8926 51.1734 85.5225 51.1734C86.1523 51.1734 86.7286 50.8192 87.013 50.2572C87.1053 50.0748 87.1994 49.8937 87.2951 49.7137L78.2844 27.7423ZM85.5223 46.1058C82.8735 41.871 79.3319 38.3294 75.0971 35.6805C79.3319 33.0316 82.8734 29.4901 85.5223 25.2551C88.1711 29.4901 91.7127 33.0316 95.9475 35.6805C91.7127 38.3294 88.1713 41.871 85.5223 46.1058Z" fill="#06AEEF" stroke="#06AEEF"/>
  <path d="M77.226 53.5461L77.226 53.5461C74.6972 54.8263 72.6855 56.8379 71.4053 59.3666C71.1209 59.9286 70.5446 60.2828 69.9148 60.2828C69.285 60.2828 68.7087 59.9286 68.4242 59.3666C67.1441 56.8381 65.1323 54.8263 62.6037 53.5462L77.226 53.5461ZM77.226 53.5461C77.7878 53.2616 78.142 52.6853 78.142 52.0555M77.226 53.5461L78.142 52.0555M62.6035 50.565L62.6035 50.565C65.1323 49.2847 67.1441 47.273 68.4242 44.7443M62.6035 50.565L77.2259 50.5649C74.6971 49.2848 72.6855 47.273 71.4053 44.7443C71.1209 44.1823 70.5446 43.8281 69.9148 43.8281C69.285 43.8281 68.7087 44.1823 68.4242 44.7443M62.6035 50.565C62.0417 50.8495 61.6875 51.4258 61.6875 52.0555M62.6035 50.565L61.6875 52.0555M68.4242 44.7443L68.8703 44.9702L68.4242 44.7443ZM78.142 52.0555C78.142 51.4259 77.788 50.8494 77.226 50.565L78.142 52.0555ZM61.6875 52.0555C61.6875 52.6854 62.0416 53.2617 62.6036 53.5461L61.6875 52.0555ZM69.9148 48.6674C70.8733 49.9585 72.0117 51.0968 73.3028 52.0554C72.0117 53.014 70.8733 54.1522 69.9148 55.4434C68.9562 54.1522 67.8179 53.014 66.5267 52.0554C67.8179 51.0968 68.9562 49.9585 69.9148 48.6674Z" fill="#06AEEF" stroke="#06AEEF"/>
</svg>