<svg xmlns="http://www.w3.org/2000/svg" width="30" height="39" viewBox="0 0 30 39" fill="none">
  <path d="M23.4907 19.5426C21.2788 18.8907 19.038 18.5039 16.7789 18.3731C20.1105 17.2782 22.5941 13.1823 22.5941 8.30824C22.5941 3.10591 19.7552 0 15 0C10.245 0 7.40609 3.10591 7.40609 8.30816C7.40609 13.1924 9.89982 17.2949 13.2419 18.3796C11.0087 18.5172 8.76301 18.9018 6.51383 19.5412C2.3742 20.7179 0 23.3553 0 26.7772V38.473C0 38.7641 0.223805 39 0.500002 39H29.5C29.7762 39 30 38.7641 30 38.473V26.7773C30 23.3488 27.6883 20.7795 23.4907 19.5426ZM18.9312 19.6389L14.7137 26.3897L10.5539 19.7312C13.368 19.2929 16.1671 19.2615 18.9312 19.6389ZM15 1.05407C17.9473 1.05407 20.0056 2.36666 20.9705 4.74643C19.9576 5.16568 18.2255 5.55271 17.19 5.00115C16.6875 4.73333 16.3912 4.26685 16.2841 3.57513C16.2532 3.37541 16.1164 3.21195 15.9322 3.15466C15.7483 3.097 15.5491 3.15604 15.4201 3.30617C13.5238 5.51127 11.7946 5.55012 8.77971 5.47517C9.60093 2.63548 11.7648 1.05407 15 1.05407ZM8.4061 8.30816C8.4061 7.67418 8.45589 7.08126 8.54521 6.52345C9.04759 6.53632 9.52729 6.54813 9.98213 6.54813C12.1792 6.54813 13.8717 6.2829 15.558 4.65533C15.8101 5.22251 16.2094 5.65966 16.7388 5.94187C18.1122 6.67389 20.1235 6.21587 21.294 5.74253C21.4889 6.5137 21.5941 7.36759 21.5941 8.30816C21.5941 13.4366 18.6361 17.6088 15 17.6088C11.3641 17.6088 8.4061 13.4366 8.4061 8.30816ZM6.7742 20.5589C7.20743 20.4357 7.64037 20.3256 8.07324 20.2216C6.02026 23.1816 6.62498 28.3813 7.4936 31.5816C7.03725 32.0075 6.74747 32.6276 6.74747 33.319C6.74747 34.5998 7.73605 35.642 8.95105 35.642C10.1662 35.642 11.1548 34.5999 11.1548 33.319C11.1548 32.0383 10.1663 30.9962 8.95105 30.9962C8.75926 30.9962 8.57411 31.0249 8.39663 31.0736C7.31981 26.9822 7.27291 22.0777 9.56956 20.0723L14.2959 27.6377C14.3886 27.7858 14.5455 27.875 14.7135 27.875C14.8816 27.875 15.0386 27.7858 15.1312 27.6377L19.9028 19.9999C20.735 20.6019 21.612 21.5707 21.9999 23.096L21.8035 23.0576C20.2758 22.7584 18.7975 23.8179 18.1262 25.6926L15.8487 32.0525C15.6846 32.5108 15.7159 33.0208 15.9366 33.4888C16.1532 33.9479 16.5205 34.2493 16.971 34.3374L17.2794 34.3976C17.3598 35.1707 17.976 35.7766 18.7306 35.7766C19.5396 35.7766 20.1977 35.0828 20.1977 34.2301C20.1977 33.3774 19.5396 32.6837 18.7306 32.6837C18.223 32.6837 17.7752 32.957 17.5116 33.3711L17.1533 33.3011C17.0641 33.2836 16.9339 33.2354 16.832 33.0194C16.7335 32.8109 16.7176 32.6108 16.7842 32.4246L19.0617 26.0648C19.5561 24.6835 20.5839 23.8927 21.6211 24.0938L23.4347 24.4482C24.4738 24.6512 25.1806 25.8027 25.154 27.2483L25.028 34.0286C25.0241 34.2351 24.9411 34.4181 24.7809 34.573C24.6123 34.7356 24.4737 34.7315 24.3853 34.7145L23.9526 34.6299C23.802 33.9447 23.2212 33.4312 22.5261 33.4312C21.7171 33.4312 21.0589 34.125 21.0589 34.9778C21.0589 35.8305 21.7171 36.5243 22.5261 36.5243C23.0951 36.5243 23.5839 36.1775 23.8273 35.6773L24.203 35.7509C24.2897 35.7677 24.3763 35.7761 24.4622 35.7761C24.8218 35.7761 25.1678 35.6292 25.4571 35.3495C25.8159 35.0024 26.0188 34.5406 26.0277 34.0492L26.1536 27.2688C26.1903 25.2967 25.1471 23.7108 23.617 23.412L23.0691 23.3049C22.8417 22.0858 22.3218 21.0042 21.5521 20.1222C22.1101 20.2518 22.6668 20.394 23.2212 20.5574C25.3792 21.1933 28.9996 22.8472 28.9996 26.7771V37.9459H1V26.7773C1 22.7949 4.61767 21.1719 6.7742 20.5589ZM8.95119 32.0504C9.61495 32.0504 10.155 32.6194 10.155 33.3191C10.155 34.0187 9.61495 34.588 8.95119 34.588C8.28744 34.588 7.74754 34.0187 7.74754 33.3191C7.74754 32.6194 8.28744 32.0504 8.95119 32.0504ZM18.2637 34.2302C18.2637 33.9586 18.4734 33.7378 18.731 33.7378C18.9886 33.7378 19.1981 33.9586 19.1981 34.2302C19.1981 34.5017 18.9886 34.7226 18.731 34.7226C18.4733 34.7226 18.2637 34.5017 18.2637 34.2302ZM22.9937 34.978C22.9937 35.2496 22.784 35.4704 22.5264 35.4704C22.2688 35.4704 22.0593 35.2496 22.0593 34.978C22.0593 34.7065 22.2688 34.4855 22.5264 34.4855C22.784 34.4855 22.9937 34.7064 22.9937 34.978Z" fill="#06AEEF"/>
</svg>