<svg xmlns="http://www.w3.org/2000/svg" width="34" height="38" viewBox="0 0 34 38" fill="none">
  <path d="M22.6685 24.5628C22.6685 27.6931 20.1309 30.231 17.0003 30.231C13.8697 30.231 11.332 27.6931 11.332 24.5628C11.332 21.4322 13.8697 18.8945 17.0003 18.8945C20.1309 18.8945 22.6685 21.4322 22.6685 24.5628Z" fill="white"/>
  <path d="M16.9992 11.3359C9.69459 11.3359 3.77344 17.2574 3.77344 24.5621C3.77344 31.8664 9.69459 37.7879 16.9992 37.7879C24.3035 37.7879 30.225 31.8664 30.225 24.5621C30.2167 17.2609 24.3001 11.3446 16.9992 11.3359ZM16.9992 32.1196C12.8252 32.1196 9.44169 28.7358 9.44169 24.5621C9.44169 20.388 12.8252 17.0042 16.9992 17.0042C21.1733 17.0042 24.5568 20.388 24.5568 24.5621C24.5523 28.7341 21.1712 32.1151 16.9992 32.1196Z" fill="white"/>
  <path d="M14.827 9.59847L9.30994 0.453639C9.13557 0.172371 8.82836 0.00077356 8.49762 8.16348e-05H0.940067C0.602753 -0.00441587 0.290349 0.177214 0.127401 0.472667C-0.0424669 0.764313 -0.0424669 1.12515 0.127401 1.41714L6.9484 13.3017C9.15772 11.3262 11.8964 10.0392 14.827 9.59847Z" fill="white"/>
  <path d="M33.8718 0.472667C33.7089 0.177214 33.3965 -0.00441587 33.0592 8.16348e-05H25.5016C25.1705 0.00077356 24.8637 0.172371 24.6893 0.453639L19.1719 9.59847C22.1029 10.0392 24.8412 11.3262 27.0508 13.3017L33.8718 1.41714C34.0417 1.12515 34.0417 0.764313 33.8718 0.472667Z" fill="white"/>
</svg>