<svg xmlns="http://www.w3.org/2000/svg" width="120" height="120" viewBox="0 0 120 120" fill="none">
  <rect width="120" height="120" rx="60" fill="white"/>
  <path d="M93.9168 46.5707H90.0514C90.8746 42.8946 90.8318 39.5425 89.879 36.5435C88.8718 33.373 86.8599 30.6362 83.8565 28.3483L83.7222 28.246H83.6143C78.0971 24.6621 73.7161 23.9467 70.2097 24.5172C66.7046 25.0876 64.1506 26.9347 62.308 28.2674L62.2952 28.2766L62.2753 28.291L62.2569 28.3073C61.5953 28.8927 60.8285 29.3383 60.0005 29.6198C59.1726 29.3383 58.4058 28.8927 57.7442 28.3073L57.7258 28.291L57.7059 28.2766L57.7 28.2724C55.8563 26.9389 53.2978 25.0885 49.7765 24.5093C46.2325 23.9265 41.7905 24.6397 36.1765 28.2616L36.1592 28.2728L36.1429 28.2853C33.1659 30.5728 31.1547 33.3056 30.1412 36.4735C29.1823 39.4709 29.1276 42.8236 29.95 46.5065H26.0843C25.6149 46.5065 25.1671 46.6972 24.8386 47.033C24.5105 47.3684 24.3281 47.821 24.3281 48.2906C24.3281 48.7603 24.5105 49.2129 24.8386 49.5483C25.1671 49.8841 25.6149 50.0748 26.0843 50.0748H43.1705V57.4723C43.1705 57.9419 43.3529 58.3945 43.681 58.7299C44.0094 59.0657 44.4573 59.2564 44.9266 59.2564H48.1951V60.7854C48.1951 61.255 48.3775 61.7076 48.7056 62.043C49.0341 62.3788 49.4819 62.5695 49.9513 62.5695H68.7936C69.263 62.5695 69.7109 62.3788 70.0393 62.043C70.3674 61.7076 70.5498 61.255 70.5498 60.7854V59.3206H73.8183C74.2876 59.3206 74.7355 59.1299 75.0639 58.7941C75.392 58.4587 75.5744 58.0061 75.5744 57.5365V54.4537H93.9168C94.3862 54.4537 94.834 54.263 95.1625 53.9272C95.4906 53.5918 95.673 53.1392 95.673 52.6696C95.673 52.1999 95.4906 51.7473 95.1625 51.4119C94.834 51.0761 94.3862 50.8854 93.9168 50.8854H75.5744V50.139H93.9168C94.3862 50.139 94.834 49.9483 95.1625 49.6125C95.4906 49.2771 95.673 48.8245 95.673 48.3549C95.673 47.8852 95.4906 47.4326 95.1625 47.0972C94.834 46.7614 94.3862 46.5707 93.9168 46.5707ZM59.9275 33.2086L60.0011 33.2195L60.0747 33.2085C61.6662 32.9698 63.1523 32.2581 64.3484 31.1639C66.1474 29.8778 68.1774 28.4277 70.9023 28.0041C73.6162 27.5822 77.1024 28.1711 81.7939 31.183C84.227 33.0906 85.8167 35.3202 86.577 37.8973C87.313 40.3919 87.2836 43.2521 86.4357 46.5193H75.5744V43.488C75.5744 43.0183 75.392 42.5657 75.0639 42.2303C74.7355 41.8945 74.2876 41.7038 73.8183 41.7038H70.5498V40.2391C70.5498 39.7694 70.3674 39.3168 70.0393 38.9814C69.7109 38.6456 69.263 38.4549 68.7936 38.4549H49.9513C49.4819 38.4549 49.0341 38.6456 48.7056 38.9814C48.3775 39.3168 48.1951 39.7694 48.1951 40.2391V41.7038H44.9266C44.4573 41.7038 44.0094 41.8945 43.681 42.2303C43.3529 42.5657 43.1705 43.0183 43.1705 43.488V46.5707H33.5648C32.7097 43.2954 32.6659 40.4319 33.3915 37.9423C34.1411 35.3706 35.7242 33.1546 38.1691 31.273C42.0363 28.7499 45.0528 27.8976 47.5646 27.8976C51.0992 27.8976 53.4724 29.6067 55.5799 31.1243C55.6042 31.1417 55.6284 31.1592 55.6526 31.1766C56.8506 32.2665 58.337 32.9738 59.9275 33.2086ZM48.1951 55.7523H46.6828V45.2721H48.1951V55.7523ZM67.0375 59.0012H51.7074V42.0232H67.0375V59.0012ZM72.0621 55.7523H70.5498V45.2721H72.0621V55.7523Z" fill="#06AEEF" stroke="#06AEEF"/>
  <path d="M87.702 53.6747H86.8971H84.1449H83.8408L83.7009 53.9447C81.5609 58.076 80.4072 62.6297 80.3273 67.2621C80.1874 70.7711 79.6244 74.2517 78.6502 77.6316L78.6491 77.6352C77.7324 80.9079 75.7359 84.0694 73.6387 86.6257C72.0307 88.5857 70.386 90.163 69.1648 91.1425C69.9014 87.0444 70.2478 84.5849 70.2712 82.6046C70.2972 80.413 69.9271 78.8202 69.2993 76.3003C68.5988 73.2619 67.1231 70.448 65.0109 68.1214L65.0028 68.1124L64.9943 68.1039C64.2289 67.3384 63.3011 66.7482 62.2774 66.3747C61.2545 66.0014 60.1606 65.8536 59.0732 65.9413C58.2157 66.0029 57.3828 66.2521 56.636 66.6713C55.8887 67.0906 55.2463 67.6694 54.7568 68.3657C53.0322 70.7901 51.6804 73.4495 50.7447 76.2589L50.7386 76.2772L50.7339 76.296C50.1048 78.821 49.744 80.4262 49.7797 82.6268C49.812 84.6148 50.1675 87.0792 50.9066 91.169C49.6736 90.1923 48.0263 88.61 46.4178 86.639C44.332 84.0833 42.3498 80.9209 41.4202 77.6459L41.4196 77.6439C40.4453 74.2641 39.8824 70.7835 39.7424 67.2745C39.6673 62.9133 38.6403 58.6218 36.7346 54.687H43.6788H44.1788V54.187V51.7266V51.2266H43.6788H26.0848C25.6223 51.2266 25.1767 51.4063 24.8464 51.7296C24.5159 52.0532 24.3281 52.4944 24.3281 52.9568C24.3281 53.4191 24.5159 53.8603 24.8464 54.184L25.1962 53.8267L24.8464 54.184C25.1767 54.5072 25.6223 54.687 26.0848 54.687H32.8244L32.8753 54.7899L32.8808 54.801L32.8868 54.8118C35.0512 58.6939 36.2318 63.0271 36.3298 67.4474L36.3297 67.4474L36.3301 67.457C36.4857 71.2172 37.0866 74.947 38.1208 78.5714C39.2731 82.617 42.1096 87.04 45.0569 90.3508C46.533 92.009 48.0542 93.4079 49.43 94.3494C50.1176 94.8199 50.7821 95.1854 51.3972 95.4087C52.0062 95.6297 52.6101 95.7272 53.1524 95.6036L53.1635 95.601L53.1745 95.598C53.4855 95.512 53.7759 95.3643 54.0275 95.1635C54.2791 94.9627 54.4867 94.713 54.6368 94.4293C54.787 94.1455 54.8764 93.8341 54.8991 93.5144C54.9207 93.2089 54.881 92.9026 54.7826 92.6127C53.8174 87.4334 53.3731 84.7377 53.318 82.7478C53.2638 80.7893 53.586 79.5154 54.2121 77.1493C55.0109 74.7143 56.1711 72.407 57.6557 70.3016C57.8557 70.0356 58.1139 69.8152 58.4125 69.6569C58.713 69.4976 59.0465 69.4053 59.3888 69.3873L59.396 69.3869L59.4032 69.3863C59.9758 69.3396 60.5515 69.4203 61.0872 69.6221C61.6189 69.8225 62.0968 70.1367 62.4863 70.541C64.1222 72.4387 65.2631 74.6955 65.812 77.1179L65.8139 77.1266L65.8162 77.1353C66.4454 79.5125 66.7784 80.788 66.7391 82.7579C66.6993 84.7533 66.2767 87.4612 65.337 92.6633C65.2389 92.9528 65.1993 93.2586 65.221 93.5636C65.2436 93.8833 65.333 94.1947 65.4832 94.4785C65.6334 94.7622 65.841 95.0119 66.0926 95.2127C66.3442 95.4135 66.6345 95.5612 66.9455 95.6472L66.987 95.6587L67.0298 95.6629C67.1837 95.678 67.3388 95.6788 67.4928 95.6652C68.0306 95.6601 68.6158 95.4885 69.2142 95.2121C69.8264 94.9293 70.4818 94.5229 71.1578 94.0219C72.5097 93.02 73.9787 91.6139 75.3945 89.9781C78.2206 86.713 80.8916 82.4668 81.9992 78.5716C83.0334 74.9472 83.6344 71.2173 83.7899 67.457L83.7901 67.457L83.7903 67.4442C83.8598 63.0268 85.0107 58.6896 87.1469 54.7966L87.1521 54.7872L87.1568 54.7776L87.3453 54.3962L87.702 53.6747Z" fill="#06AEEF" stroke="#06AEEF"/>
</svg>