<svg xmlns="http://www.w3.org/2000/svg" width="34" height="39" viewBox="0 0 34 39" fill="none">
  <path d="M33.4296 7.30207H26.7765L17.3457 0.116718C17.1416 -0.038906 16.8584 -0.038906 16.6543 0.116718L7.22362 7.30207H0.570495C0.255375 7.30207 0 7.55752 0 7.87257V38.2977C0 38.6127 0.255375 38.8682 0.570495 38.8682H26.4698C26.785 38.8682 27.0403 38.6127 27.0403 38.2977C27.0403 37.9826 26.785 37.7272 26.4698 37.7272H1.14091V8.44306H5.72606L4.01229 9.74879C3.12493 9.85279 2.43396 10.6088 2.43396 11.5237C2.43396 12.5093 3.23584 13.3111 4.22144 13.3111C5.20703 13.3111 6.00891 12.5093 6.00891 11.5237C6.00891 10.9731 5.75855 10.48 5.36584 10.1519L7.60858 8.44314H26.3913L28.6341 10.1519C28.2415 10.4801 27.991 10.9731 27.991 11.5237C27.991 12.5093 28.7929 13.3111 29.7785 13.3111C30.7641 13.3111 31.566 12.5093 31.566 11.5237C31.566 10.6088 30.875 9.85279 29.9876 9.74879L28.2739 8.44306H32.859V37.7272H29.17C28.8548 37.7272 28.5995 37.9826 28.5995 38.2977C28.5995 38.6127 28.8548 38.8682 29.17 38.8682H33.4295C33.7446 38.8682 34 38.6127 34 38.2977V7.87257C34.0001 7.55752 33.7447 7.30207 33.4296 7.30207ZM4.22144 12.1701C3.86494 12.1701 3.57488 11.8802 3.57488 11.5236C3.57488 11.167 3.86487 10.877 4.22144 10.877C4.57801 10.877 4.868 11.167 4.868 11.5236C4.868 11.8802 4.57801 12.1701 4.22144 12.1701ZM9.10614 7.30207L17 1.28777L24.8939 7.30215L9.10614 7.30207ZM29.778 10.877C29.7783 10.877 29.7785 10.877 29.7786 10.877C30.1351 10.8771 30.4251 11.167 30.4251 11.5236C30.4251 11.8802 30.1351 12.1701 29.7786 12.1701C29.4221 12.1701 29.132 11.8802 29.132 11.5236C29.132 11.1672 29.4218 10.8773 29.778 10.877Z" fill="#06AEEF"/>
  <path d="M23.5469 23.5375C24.2613 22.7263 25.3414 21.5006 25.3414 18.6099C25.3414 17.3455 24.8169 16.1803 23.8642 15.3283C22.9063 14.4717 21.5731 14 20.11 14C18.9888 14 17.8883 14.4644 17.0122 15.2919C16.1342 14.4644 15.0271 14 13.8955 14C12.4324 14 11.0991 14.4717 10.1413 15.3283C9.18878 16.1802 8.66406 17.3456 8.66406 18.6099C8.66406 21.5005 9.74417 22.7263 10.4588 23.5375C11.0468 24.2048 11.2449 24.4296 10.8902 25.2099C10.1446 26.8503 10.1271 28.6212 10.2437 29.8179C10.3843 31.2601 10.7971 32.6319 11.3482 33.4876C11.7406 34.0971 12.1794 34.4061 12.6525 34.4061C13.3517 34.4061 13.6537 33.6603 13.7529 33.4152C13.9262 32.9871 14.0668 32.4383 14.2295 31.8028C14.8224 29.487 15.4405 27.57 17.0027 27.57C18.5649 27.57 19.183 29.487 19.7759 31.8028C19.9386 32.4382 20.0791 32.9869 20.2525 33.4152C20.3518 33.6603 20.6536 34.4061 21.3529 34.4061C21.826 34.4061 22.2648 34.0971 22.6572 33.4876C23.2082 32.6319 23.6212 31.2601 23.7617 29.8179C23.8783 28.6212 23.8609 26.8505 23.1152 25.2099C22.7607 24.4296 22.9588 24.2048 23.5469 23.5375ZM22.0765 25.682C23.0265 27.772 22.7272 30.6899 21.9632 32.3742C21.735 32.8773 21.5297 33.1188 21.4139 33.2153C21.2402 32.9213 21.0355 32.1224 20.8812 31.5197C20.613 30.4718 20.3088 29.284 19.7736 28.306C19.0919 27.0605 18.1597 26.4291 17.0028 26.4291C15.8458 26.4291 14.9135 27.0605 14.232 28.306C13.6967 29.2841 13.3925 30.4719 13.1243 31.5197C12.9701 32.1223 12.7654 32.9212 12.5917 33.2153C12.4759 33.1188 12.2706 32.8774 12.0424 32.3742C11.2783 30.6898 10.9791 27.772 11.9291 25.682C12.5893 24.2294 11.9414 23.4942 11.315 22.7832C10.6423 22.0197 9.80505 21.0696 9.80505 18.6099C9.80505 16.5998 11.5253 15.1409 13.8955 15.1409C14.7398 15.1409 15.6032 15.5191 16.2753 16.1681C15.8366 16.7934 15.5543 17.1072 14.5169 17.1072C14.2018 17.1072 13.9464 17.3626 13.9464 17.6777C13.9464 17.9927 14.2018 18.2482 14.5169 18.2482C16.219 18.2482 16.769 17.4571 17.3011 16.6919C17.3398 16.6363 17.3804 16.5787 17.4209 16.5213C17.4312 16.5108 17.4416 16.5002 17.4512 16.4888C18.1635 15.6322 19.1326 15.1409 20.1101 15.1409C22.4803 15.1409 24.2005 16.5999 24.2005 18.6099C24.2005 21.0696 23.3633 22.0197 22.6906 22.7832C22.0641 23.4943 21.4163 24.2295 22.0765 25.682Z" fill="#06AEEF"/>
  <path d="M30.9967 18.2578H28.5627C28.2476 18.2578 27.9922 18.5133 27.9922 18.8283C27.9922 19.1434 28.2476 19.3988 28.5627 19.3988H30.9967C31.3118 19.3988 31.5672 19.1434 31.5672 18.8283C31.5672 18.5133 31.3118 18.2578 30.9967 18.2578Z" fill="#06AEEF"/>
  <path d="M30.9941 20.6875H26.7346C26.4195 20.6875 26.1641 20.943 26.1641 21.258C26.1641 21.573 26.4194 21.8285 26.7346 21.8285H30.9941C31.3092 21.8285 31.5646 21.573 31.5646 21.258C31.5646 20.9429 31.3092 20.6875 30.9941 20.6875Z" fill="#06AEEF"/>
  <path d="M30.9923 23.125H25.5158C25.2007 23.125 24.9453 23.3805 24.9453 23.6955C24.9453 24.0105 25.2008 24.266 25.5158 24.266H30.9923C31.3075 24.266 31.5628 24.0105 31.5628 23.6955C31.5628 23.3805 31.3075 23.125 30.9923 23.125Z" fill="#06AEEF"/>
  <path d="M6.05048 28.6016H3.008C2.69288 28.6016 2.4375 28.857 2.4375 29.1721C2.4375 29.4871 2.69295 29.7426 3.008 29.7426H6.05048C6.3656 29.7426 6.62098 29.4871 6.62098 29.1721C6.62098 28.857 6.36568 28.6016 6.05048 28.6016Z" fill="#06AEEF"/>
  <path d="M7.87599 31.0312H3.008C2.69288 31.0312 2.4375 31.2867 2.4375 31.6017C2.4375 31.9168 2.69295 32.1722 3.008 32.1722H7.87599C8.19111 32.1722 8.44649 31.9168 8.44649 31.6017C8.44649 31.2867 8.19119 31.0312 7.87599 31.0312Z" fill="#06AEEF"/>
  <path d="M9.7015 33.4688H3.008C2.69288 33.4688 2.4375 33.7242 2.4375 34.0392C2.4375 34.3543 2.69295 34.6097 3.008 34.6097H9.7015C10.0166 34.6097 10.272 34.3543 10.272 34.0392C10.272 33.7242 10.0167 33.4688 9.7015 33.4688Z" fill="#06AEEF"/>
</svg>