<svg xmlns="http://www.w3.org/2000/svg" width="120" height="120" viewBox="0 0 120 120" fill="none">
  <rect width="120" height="120" rx="60" fill="white"/>
  <path d="M56.5383 43.976L56.5383 43.976C56.3381 43.9223 56.1571 43.8318 56.0011 43.7138C54.9776 44.1626 53.9279 44.6126 52.705 44.9294C47.5917 46.2539 44.0316 44.9016 40.7489 43.5447C40.6286 43.4949 40.5088 43.4453 40.3893 43.3957C37.2522 42.0952 34.3755 40.9026 30.434 41.8934L30.3121 41.4084L30.434 41.8934C25.8893 43.0357 23.6625 47.1883 23.3464 51.9569C23.0326 56.6917 24.549 62.427 28.1868 67.9199L56.5383 43.976ZM56.5383 43.976L73.3312 48.4753C74.2189 51.3958 74.1468 54.8342 73.3786 58.2332C72.589 61.7265 71.0722 65.1403 69.1607 67.8486C68.9631 68.1134 68.8472 68.4433 68.8509 68.7988L68.8509 68.8004M56.5383 43.976L68.8509 68.8004M68.8509 68.8004L68.8509 68.8026C68.8532 68.9616 68.9447 75.3843 67.365 82.0198C66.5701 85.3588 65.3597 88.717 63.5278 91.3535C61.7146 93.9629 59.3108 95.8426 56.1025 96.3342C56.0723 96.3269 56.0251 96.311 55.9678 96.2758C55.8745 96.2185 55.7293 96.0948 55.5849 95.8214C55.2875 95.2586 55.0053 94.0823 55.2121 91.6982L55.2131 91.6865M68.8509 68.8004L55.2131 91.6865M55.2131 91.6865L55.2136 91.6749M55.2131 91.6865L55.2136 91.6749M55.2136 91.6749L55.5259 83.8419L55.5265 83.8265M55.2136 91.6749L55.5265 83.8265M55.5265 83.8265L55.5262 83.8111M55.5265 83.8265L55.5262 83.8111M55.5262 83.8111C55.4035 78.1631 52.121 75.1422 48.6485 75.1421C45.1761 75.1419 41.8936 78.1626 41.771 83.8113L41.7707 83.8267M55.5262 83.8111L41.7707 83.8267M41.7707 83.8267L41.7713 83.842M41.7707 83.8267L41.7713 83.842M41.7713 83.842L42.0822 91.655L42.0827 91.6669M41.7713 83.842L42.0827 91.6669M42.0827 91.6669L42.0837 91.6788M42.0827 91.6669L42.0837 91.6788M42.0837 91.6788C42.2935 94.0727 42.0117 95.254 41.7139 95.8193M42.0837 91.6788L41.7139 95.8193M41.7139 95.8193C41.5692 96.0939 41.4237 96.2181 41.3302 96.2756M41.7139 95.8193L41.3302 96.2756M41.3302 96.2756C41.2727 96.311 41.2253 96.3269 41.195 96.3342M41.3302 96.2756L41.195 96.3342M41.195 96.3342C38.0869 95.858 35.7346 94.0794 33.9421 91.5977C32.1303 89.0891 30.9063 85.8809 30.0841 82.6441C28.4527 76.2212 28.4352 69.8177 28.4414 68.9083C28.4688 68.5719 28.3878 68.2232 28.1869 67.92L41.195 96.3342ZM76.6533 57.8562C77.2263 54.8565 77.254 51.9764 76.7628 49.3949L79.6893 50.1793L79.6894 50.1793C80.5223 50.4025 81.3786 49.9083 81.6018 49.0753L81.6018 49.0752L84.5686 37.9967C88.2848 39.0969 91.407 41.2347 94.8481 43.6634C94.9957 43.7675 95.1439 43.8722 95.2926 43.9773C98.7472 46.4182 102.533 49.0932 107.493 51.1397L107.493 51.1398C108.288 51.4675 109.201 51.094 109.53 50.2948L109.543 50.2651L109.551 50.2341L111.705 42.2301L111.705 42.2297C111.919 41.431 111.473 40.611 110.702 40.3479C106.291 38.4364 102.968 36.2551 98.793 33.3083L98.7441 33.2738C95.0406 30.6599 91.6254 28.2496 87.8583 27.2403L62.0072 20.3136L62.0071 20.3135C60.6964 19.9626 59.3755 20.3665 58.3184 21.2315L58.6345 21.6178L58.3184 21.2315C56.6695 22.5808 55.9232 24.7235 56.0031 26.6584C56.0761 28.4261 56.8545 30.1543 58.4234 30.9132L55.8912 40.359C55.4997 40.522 55.1322 40.6814 54.7792 40.8345C52.822 41.6832 51.3121 42.338 48.6487 42.338C45.7322 42.338 43.4974 41.382 41.1744 40.3882C40.7466 40.2052 40.3158 40.0209 39.8772 39.8411C37.0598 38.6859 34.0195 37.7753 29.6763 38.8672C23.6208 40.3896 20.6267 45.8296 20.2341 51.758C19.8832 57.0534 21.5059 63.3148 25.3268 69.2471C25.3363 71.0741 25.5064 77.8689 27.4206 84.5518C29.3804 91.3935 33.2432 98.356 40.878 99.4401C41.5386 99.534 42.7688 99.3736 43.761 98.2156C44.7454 97.0668 45.4264 95.0168 45.1995 91.477C45.1728 90.8649 45.1312 90.114 45.0867 89.3121C44.98 87.3902 44.8571 85.1751 44.8852 83.8743C44.9701 79.9674 46.9468 78.2891 48.6488 78.2886C50.3504 78.288 52.3271 79.9644 52.412 83.8741C52.4402 85.1753 52.3173 87.389 52.2107 89.3104C52.1661 90.1128 52.1244 90.8643 52.0977 91.477C51.8408 95.4852 52.7242 97.5421 53.8783 98.566C55.0276 99.5858 56.3033 99.4531 56.5287 99.4216L56.5339 99.4208C64.1116 98.2797 67.9454 91.3216 69.891 84.4977C71.7914 77.8325 71.961 71.0691 71.9706 69.2471C74.4052 65.4673 75.9461 61.5587 76.6533 57.8562ZM59.9069 28.1517L59.9068 28.1517C59.6995 28.0962 59.4535 27.8781 59.2823 27.4248L59.2823 27.4248C58.9244 26.4775 59.1293 25.3444 59.6233 24.4773C59.868 24.0479 60.1666 23.7153 60.4615 23.5162C60.7564 23.3172 61.0064 23.2755 61.2009 23.3276C61.201 23.3276 61.201 23.3276 61.201 23.3276L87.0521 30.2543C90.0464 31.0566 93.2349 33.2202 96.8338 35.7221C96.9695 35.8164 97.1057 35.9112 97.2424 36.0063C100.594 38.3376 104.265 40.8919 108.343 42.7165L107.05 47.5408C103.338 45.7979 100.072 43.515 96.9477 41.331C96.6434 41.1183 96.3405 40.9066 96.0386 40.6964C92.5116 38.2402 89.1089 35.9766 85.4675 35.0009L59.9069 28.1517ZM79.7802 36.707L81.5568 37.183L78.9906 46.7606L77.214 46.2846L79.7802 36.707ZM76.7667 35.8994L74.2005 45.4772L72.6903 45.0726L75.2567 35.4947L76.7667 35.8994ZM72.2432 34.6872L69.6768 44.2651L68.1668 43.8605L70.7332 34.2827L72.2432 34.6872ZM67.7197 33.4752L65.1533 43.0531L63.6433 42.6485L66.2095 33.0706L67.7197 33.4752ZM63.196 32.2629L60.6298 41.8408L58.8538 41.365L61.4195 31.7869L63.196 32.2629Z" fill="#06AEEF" stroke="#06AEEF"/>
</svg>