<svg xmlns="http://www.w3.org/2000/svg" width="120" height="120" viewBox="0 0 120 120" fill="none">
  <rect width="120" height="120" rx="60" fill="white"/>
  <path d="M51.9835 37.0876C51.2552 37.0748 50.6752 36.4741 50.6878 35.7457C50.7004 35.0253 51.2865 34.4322 52.0308 34.4498C52.0503 34.45 52.07 34.4502 52.0897 34.4502C52.8296 34.4502 53.6391 34.2144 54.5532 33.8056C55.467 33.3968 56.4427 32.8354 57.5198 32.215L57.5199 32.215L57.5327 32.2076C57.6805 32.1225 57.8309 32.0359 57.9837 31.9482C55.3863 31.5472 52.6244 30.9124 50.1864 30.2192C47.295 29.397 44.8018 28.4765 43.5836 27.7428C41.6574 26.5826 39.4727 26.7503 37.6988 28.2092C34.0003 31.2507 32.9393 35.6129 33.2071 40.593C33.4755 45.5864 35.0752 51.1002 36.5973 56.338C37.2869 58.71 37.9481 60.985 38.449 63.1055H81.5606M51.9835 37.0876C51.9834 37.0876 51.9832 37.0876 51.9831 37.0876L51.9925 36.5877L51.9838 37.0876C51.9837 37.0876 51.9836 37.0876 51.9835 37.0876ZM51.9835 37.0876C54.2725 37.1306 56.4286 35.8886 58.7342 34.5604L58.8368 34.5014L58.5872 34.0681M58.5872 34.0681L58.8368 34.5014C60.195 33.7191 61.57 32.9279 63.0817 32.2902M58.5872 34.0681L58.5873 34.0681C59.9433 33.2871 61.3457 32.4794 62.8922 31.8275C62.903 31.8232 62.9138 31.8186 62.9245 31.8139M58.5872 34.0681L62.9245 31.8139M63.0817 32.2902C63.0961 32.2844 63.1098 32.2786 63.1226 32.273M63.0817 32.2902C63.0833 32.2895 63.0848 32.2889 63.0864 32.2882L62.8922 31.8275L63.0754 32.2927C63.0775 32.2918 63.0796 32.291 63.0817 32.2902ZM63.1226 32.273C65.9003 31.1068 68.9703 30.2058 71.464 29.4744L71.3233 28.9946M63.1226 32.273C63.1244 32.2721 63.1263 32.2713 63.1282 32.2705L62.9245 31.8139M63.1226 32.273C63.1211 32.2736 63.1196 32.2742 63.1181 32.2749L62.9245 31.8139M71.3233 28.9946L71.4641 29.4744L71.4745 29.4713C72.6301 29.1324 73.6378 28.8368 74.4614 28.5625C75.2797 28.29 75.9555 28.0262 76.426 27.7427L76.1679 27.3144M71.3233 28.9946C68.8325 29.7251 65.7336 30.6341 62.9245 31.8139M71.3233 28.9946L71.326 28.9938C73.6504 28.312 75.3299 27.8194 76.1679 27.3144M76.1679 27.3144L76.426 27.7427C78.3517 26.5824 80.5365 26.7504 82.3105 28.2092C86.009 31.2507 87.07 35.6129 86.8023 40.5931C86.5338 45.5865 84.9341 51.1003 83.412 56.3381C82.7226 58.7099 82.0614 60.985 81.5606 63.1055M76.1679 27.3144L62.9245 31.8139M81.5606 63.1055C81.5299 63.2356 81.4998 63.3651 81.4703 63.494L81.9577 63.6055M81.5606 63.1055H81.9577V63.6055M81.9577 63.6055C82.464 61.3921 83.1595 58.9984 83.8921 56.4777C86.9282 46.0304 90.3692 34.1891 82.6281 27.823L81.9577 63.6055ZM36.1046 64.7017L36.1046 64.7017C36.2352 65.3096 36.7726 65.7438 37.3945 65.7438H82.615C83.2366 65.7438 83.7742 65.3098 83.9046 64.7015C84.4014 62.3881 85.1479 59.8187 85.9453 57.0743L85.9542 57.0435C87.4528 51.8872 89.1717 45.9727 89.4349 40.5899C89.7466 34.2175 87.9897 29.4638 83.9863 26.1713C81.3318 23.9883 77.9811 23.7259 75.0646 25.4827C74.7924 25.6466 74.2417 25.8593 73.4562 26.1153C72.687 26.3661 71.7441 26.6427 70.7214 26.9426L70.8621 27.4224L70.7214 26.9426L70.7131 26.9451C68.2586 27.6649 65.1941 28.5636 62.3424 29.7399C59.389 29.65 55.6204 28.9312 52.2827 28.0554C48.8888 27.165 46.0279 26.1352 44.9447 25.4829C42.028 23.7257 38.6777 23.9885 36.0229 26.1715L36.0229 26.1715C32.0196 29.4638 30.2625 34.2175 30.5743 40.5901L30.5743 40.5901C30.8377 45.9733 32.5567 51.8882 34.0554 57.0449L34.0639 57.0743C34.8615 59.8187 35.6079 62.3882 36.1046 64.7017Z" fill="#06AEEF" stroke="#06AEEF"/>
  <path d="M47.3514 73.6677H72.6607C75.5731 73.6677 77.9417 71.2993 77.9417 68.3865C77.9417 65.4741 75.5731 63.1055 72.6607 63.1055C71.932 63.1055 71.3415 63.696 71.3415 64.4246C71.3415 65.1533 71.932 65.7438 72.6607 65.7438C74.1176 65.7438 75.3034 66.9296 75.3034 68.3865C75.3034 69.8434 74.1174 71.0294 72.6607 71.0294H47.3514C45.8946 71.0294 44.7087 69.8434 44.7087 68.3865C44.7087 66.9296 45.8946 65.7438 47.3514 65.7438C48.0798 65.7438 48.6705 65.1534 48.6705 64.4246C48.6705 63.6959 48.0798 63.1055 47.3514 63.1055C44.4389 63.1055 42.0703 65.4741 42.0703 68.3865C42.0703 71.2991 44.4389 73.6677 47.3514 73.6677Z" fill="#06AEEF" stroke="#06AEEF"/>
  <path d="M50.5584 81.5935H69.4531C72.3653 81.5935 74.7339 79.2249 74.7339 76.3123C74.7339 73.3999 72.3653 71.0312 69.4531 71.0312C68.7244 71.0312 68.1339 71.6218 68.1339 72.3504C68.1339 73.0791 68.7244 73.6696 69.4531 73.6696C70.9098 73.6696 72.0956 74.8554 72.0956 76.3123C72.0956 77.7692 70.9096 78.9552 69.4531 78.9552H50.5584C49.1017 78.9552 47.9157 77.7692 47.9157 76.3123C47.9157 74.8554 49.1016 73.6696 50.5584 73.6696C51.2868 73.6696 51.8776 73.0791 51.8776 72.3504C51.8776 71.6217 51.2868 71.0312 50.5584 71.0312C47.646 71.0312 45.2773 73.3999 45.2773 76.3123C45.2773 79.2249 47.646 81.5935 50.5584 81.5935Z" fill="#06AEEF" stroke="#06AEEF"/>
  <path d="M53.1404 89.5152H66.8584C69.7708 89.5152 72.1394 87.1466 72.1394 84.2342C72.1394 81.3217 69.7708 78.9531 66.8584 78.9531C66.1297 78.9531 65.5392 79.5436 65.5392 80.2723C65.5392 81.001 66.1297 81.5915 66.8584 81.5915C68.3153 81.5915 69.5011 82.7773 69.5011 84.2342C69.5011 85.6911 68.3151 86.8769 66.8584 86.8769H53.1404C51.6837 86.8769 50.4977 85.6911 50.4977 84.2342C50.4977 82.7773 51.6837 81.5915 53.1404 81.5915C53.8689 81.5915 54.4596 81.001 54.4596 80.2723C54.4596 79.5436 53.8689 78.9531 53.1404 78.9531C50.228 78.9531 47.8594 81.3217 47.8594 84.2342C47.8594 87.1466 50.228 89.5152 53.1404 89.5152Z" fill="#06AEEF" stroke="#06AEEF"/>
  <path d="M55.2342 97.4373H64.7748C67.6872 97.4373 70.0559 95.0686 70.0559 92.1561C70.0559 89.2436 67.6872 86.875 64.7748 86.875C64.0462 86.875 63.4556 87.4655 63.4556 88.1942C63.4556 88.9228 64.0462 89.5134 64.7748 89.5134C66.2317 89.5134 67.4175 90.6993 67.4175 92.1562C67.4175 93.6131 66.2316 94.7989 64.7748 94.7989H55.2342C53.7774 94.7989 52.5915 93.613 52.5915 92.1561C52.5915 90.6992 53.7774 89.5134 55.2342 89.5134C55.9626 89.5134 56.5534 88.9229 56.5534 88.1942C56.5534 87.4655 55.9626 86.875 55.2342 86.875C52.3217 86.875 49.9531 89.2436 49.9531 92.1562C49.9531 95.0686 52.3218 97.4373 55.2342 97.4373Z" fill="#06AEEF" stroke="#06AEEF"/>
  <path d="M76.3434 34.7491L76.3433 34.7489C76.0163 34.0993 76.2766 33.3063 76.9265 32.9779L76.9268 32.9778C77.5758 32.6504 78.368 32.9084 78.6975 33.5578L76.3434 34.7491ZM76.3434 34.7491C76.3434 34.7491 76.3434 34.7491 76.3435 34.7493M76.3434 34.7491L76.3435 34.7493M78.6007 48.8532L78.6007 48.8533C78.3692 49.3161 77.9029 49.5828 77.4202 49.5828C77.2215 49.5828 77.0196 49.5377 76.8309 49.4433C76.1793 49.1175 75.9151 48.3252 76.2411 47.6735L78.6007 48.8532ZM78.6007 48.8532C82.4572 41.1406 78.8632 33.8842 78.6976 33.558L78.6007 48.8532ZM76.3435 34.7493C76.3486 34.7598 76.5457 35.1614 76.7892 35.8594M76.3435 34.7493L76.7892 35.8594M76.7892 35.8594C77.0363 36.5677 77.3297 37.5767 77.5198 38.7883M76.7892 35.8594L77.5198 38.7883M77.5198 38.7883C77.9002 41.213 77.8642 44.4271 76.2412 47.6733L77.5198 38.7883Z" fill="#06AEEF" stroke="#06AEEF"/>
  <path d="M58.6875 96.1196C58.6875 96.8483 59.2783 97.4388 60.0067 97.4388C60.7353 97.4388 61.3259 96.8483 61.3259 96.1196V64.4246C61.3259 63.696 60.7353 63.1055 60.0067 63.1055C59.2783 63.1055 58.6875 63.6959 58.6875 64.4246V96.1196Z" fill="#06AEEF" stroke="#06AEEF"/>
</svg>