<svg xmlns="http://www.w3.org/2000/svg" width="120" height="120" viewBox="0 0 120 120" fill="none">
  <rect width="120" height="120" rx="60" fill="white"/>
  <path d="M45.7614 22.3503L45.7615 22.3503C48.5624 22.6251 51.1257 23.2724 53.5954 24.3291C57.8175 26.1355 61.7984 26.1638 65.8046 24.4294C70.5911 22.3574 75.3598 21.7622 79.9722 22.6831C87.0059 24.0872 91.956 28.6726 93.1141 34.9929C94.4697 42.3879 93.0167 49.1071 88.7867 54.9339L88.4124 54.6622L88.7867 54.9339C87.8269 56.256 87.1194 57.8018 86.4129 59.3515L86.4126 59.3522L86.2863 59.6283C86.2548 59.6972 86.2275 59.8241 86.218 60.0304C86.2089 60.2303 86.2177 60.4546 86.2278 60.7026L86.2279 60.7048L86.242 61.0923L86.2423 61.0996L86.2422 61.0996C86.4127 68.9417 85.9092 75.3546 84.6535 81.2686C84.1806 83.4949 82.933 87.0191 81.2983 90.2436C80.4797 91.8581 79.5572 93.4114 78.5764 94.6963C77.6017 95.9732 76.5403 97.024 75.4328 97.5842L75.4279 97.5867C75.4133 97.5939 75.3994 97.5999 75.3862 97.6051C75.3697 97.6141 75.3512 97.6231 75.3307 97.6313C74.5917 97.9358 73.8507 98.093 73.1237 98.093C72.1488 98.093 71.219 97.8115 70.3762 97.2576C68.7501 96.1893 67.5551 94.171 66.661 91.8192C65.7606 89.4507 65.1348 86.6605 64.6983 83.9477C63.825 78.52 63.698 73.3265 63.6806 72.2664L63.6804 72.2582H63.6805C63.6805 70.259 62.0661 68.6379 60.065 68.6061C58.0629 68.6379 56.4496 70.2592 56.4496 72.2432V72.2514H56.4495C56.4483 72.3255 56.3579 77.4358 55.5568 82.9469C55.005 86.7449 54.2536 89.8503 53.301 92.2332C52.3518 94.6076 51.1809 96.32 49.7539 97.2576L49.7536 97.2578C48.9114 97.8104 47.9816 98.093 47.0064 98.093C46.2786 98.093 45.5367 97.9355 44.797 97.6303L44.7966 97.6302C44.7312 97.6032 44.6703 97.5719 44.6149 97.5395L44.6126 97.5381C41.2536 95.5466 39.5131 92.6478 38.389 90.3958C36.6186 86.8495 35.452 82.8825 34.8183 78.2768C34.5341 76.2138 34.2609 72.303 34.0666 68.7021C33.8726 65.1064 33.7542 61.7657 33.7856 60.8495L33.7856 60.8494C33.8273 59.6379 33.5367 58.5419 32.888 57.4821L32.8859 57.4788L32.5305 56.8877L32.53 56.8869L32.5269 56.8817C32.1359 56.2289 31.7832 55.6399 31.3688 55.0962C27.8923 50.5394 26.2716 45.3316 26.4062 39.2056L45.7614 22.3503ZM45.7614 22.3503C38.9823 21.6858 32.2245 24.652 28.9655 29.8121L28.9654 29.8122M45.7614 22.3503L28.9654 29.8122M28.9654 29.8122C27.2949 32.4586 26.4874 35.455 26.4062 39.2055L28.9654 29.8122ZM86.4596 53.2431L86.4596 53.243C90.2605 48.008 91.5154 42.2221 90.2854 35.5094C89.357 30.4451 85.3314 26.6846 79.4087 25.5021L79.5066 25.0118L79.4087 25.5021C75.3435 24.6905 71.275 25.1942 66.9467 27.0682L66.9466 27.0682C62.1785 29.1311 57.4275 29.0953 52.4636 26.9716C50.2722 26.0342 47.9901 25.4578 45.4801 25.2102C39.6989 24.6464 34.0514 27.1415 31.3974 31.3455L31.3973 31.3457C30.0323 33.5063 29.3518 36.011 29.2811 39.2662L29.2811 39.2663C29.1604 44.7418 30.5945 49.3391 33.6544 53.3495L33.6545 53.3495C34.1739 54.0306 34.6003 54.7438 34.9969 55.4073C34.997 55.4074 34.9971 55.4075 34.9971 55.4077L34.9976 55.4084L35.3411 55.9792C35.3414 55.9797 35.3416 55.9801 35.3419 55.9806C36.2753 57.5071 36.7206 59.1801 36.66 60.946C36.6333 61.7254 36.7475 64.963 36.9394 68.5293C37.1309 72.0899 37.3967 75.9222 37.6669 77.884L37.6669 77.884C38.2602 82.1948 39.3396 85.8641 40.9603 89.1101L86.4596 53.2431ZM86.4596 53.2431C85.3225 54.8099 84.5367 56.5325 83.7997 58.1482L83.7958 58.157L83.7957 58.1571M86.4596 53.2431L83.7957 58.1571M83.7957 58.1571L83.6702 58.4323C83.2903 59.2635 83.3253 60.1283 83.3518 60.7817L83.3532 60.8162L83.3533 60.8189L83.3653 61.1615C83.3653 61.1626 83.3653 61.1636 83.3653 61.1647C83.5315 68.8022 83.0441 74.9968 81.8393 80.6713C81.4164 82.6636 80.2763 85.8614 78.8272 88.7763C78.1039 90.2313 77.3107 91.6015 76.5012 92.7077C75.6911 93.8148 74.8984 94.6103 74.1805 94.9899C73.2894 95.345 72.6087 95.2821 71.9552 94.854C71.004 94.2292 70.1608 92.8981 69.4446 91.0499C68.7364 89.2225 68.1845 86.9766 67.7617 84.6313C66.917 79.9448 66.6002 74.9329 66.5557 72.2396C66.5534 68.7157 63.729 65.8484 60.2222 65.7338C60.1964 65.729 60.1626 65.7247 60.1229 65.7247C60.1066 65.7247 60.0925 65.7253 60.0821 65.7258C60.077 65.7261 60.072 65.7264 60.0678 65.7267C60.0664 65.7268 60.065 65.7269 60.0638 65.7269L60.0618 65.7268C60.0572 65.7265 60.0515 65.7261 60.0455 65.7258C60.035 65.7253 60.0209 65.7247 60.0046 65.7247C59.9656 65.7247 59.932 65.729 59.906 65.7337M83.7957 58.1571L59.906 65.7337M59.906 65.7337C56.3986 65.848 53.5741 68.7146 53.5719 72.2245M59.906 65.7337C59.8998 65.7349 59.894 65.7361 59.8886 65.7372C59.8751 65.7402 59.8639 65.7431 59.8564 65.7452L59.8469 65.7479M54.0719 72.2287C54.0719 68.9772 56.7014 66.3158 59.9652 66.2322L59.8695 65.7424C59.8592 65.7446 59.8512 65.7468 59.8469 65.7479M54.0719 72.2287L53.5719 72.2205C53.5719 72.2219 53.5719 72.2232 53.5719 72.2245M54.0719 72.2287H53.5719C53.5719 72.2273 53.5719 72.2259 53.5719 72.2245M54.0719 72.2287L45.9873 95.0089M53.5719 72.2245C53.5274 74.9258 53.2107 79.9417 52.3659 84.6301C51.9431 86.9763 51.3912 89.2227 50.683 91.0502C49.9667 92.8985 49.1236 94.2294 48.1724 94.854L48.1719 94.8542C47.5268 95.2788 46.8574 95.3477 45.9873 95.0089M59.8469 65.7479C59.8431 65.749 59.8402 65.7499 59.8425 65.7492L59.8469 65.7479ZM45.9873 95.0089C43.3571 93.4143 41.9306 91.0521 40.9604 89.1102L45.9873 95.0089ZM45.9873 95.0089C45.999 95.016 46.0106 95.0231 46.0224 95.0301L45.7647 95.4586L45.9504 94.9944C45.9628 94.9993 45.9751 95.0042 45.9873 95.0089Z" fill="#06AEEF" stroke="#06AEEF"/>
  <path d="M86.9705 37.438L86.9705 37.4381C87.9198 42.6177 86.9001 47.3332 83.9318 51.4213C83.6505 51.8104 83.2105 52.0151 82.7673 52.0151C82.4753 52.0151 82.1784 51.9257 81.9239 51.7405C81.2798 51.2741 81.1378 50.3749 81.6047 49.7324C84.127 46.2581 84.9599 42.4215 84.1416 37.957L84.1416 37.957C83.5437 34.6949 80.9393 32.2516 77.0633 31.4778L86.9705 37.438ZM86.9705 37.438C86.1416 32.9202 82.6134 29.653 77.6267 28.6576M86.9705 37.438L77.6267 28.6576M77.6267 28.6576C76.848 28.4994 76.0892 29.0086 75.9342 29.7864C75.779 30.5655 76.2838 31.3223 77.0631 31.4777L77.6267 28.6576Z" fill="#06AEEF" stroke="#06AEEF"/>
  <path d="M69.3062 41.332H65.1154V37.1413C65.1154 36.3473 64.4712 35.7031 63.6773 35.7031H56.3288C55.5348 35.7031 54.8906 36.3473 54.8906 37.1413V41.332H50.6999C49.9059 41.332 49.2617 41.9762 49.2617 42.7702V50.1187C49.2617 50.9127 49.9059 51.5569 50.6999 51.5569H54.8906V55.7476C54.8906 56.5416 55.5348 57.1857 56.3288 57.1857H63.6773C64.4712 57.1857 65.1154 56.5416 65.1154 55.7476V51.5569H69.3062C70.1001 51.5569 70.7443 50.9127 70.7443 50.1187V42.7702C70.7443 41.9762 70.1001 41.332 69.3062 41.332ZM67.868 48.6806H63.6773C62.8833 48.6806 62.2391 49.3247 62.2391 50.1187V54.3095H57.7669V50.1187C57.7669 49.3247 57.1227 48.6806 56.3288 48.6806H52.138V44.2083H56.3288C57.1227 44.2083 57.7669 43.5641 57.7669 42.7702V38.5794H62.2391V42.7702C62.2391 43.5641 62.8833 44.2083 63.6773 44.2083H67.868V48.6806Z" fill="#06AEEF" stroke="#06AEEF"/>
</svg>