<svg xmlns="http://www.w3.org/2000/svg" width="35" height="35" viewBox="0 0 35 35" fill="none">
  <path d="M30.7048 0.39065C29.0663 -0.332008 27.1487 -0.0243415 25.2025 1.08469C20.3657 3.83222 14.6417 3.83222 9.8049 1.08469C7.85873 -0.0243415 5.94118 -0.332008 4.30268 0.39065C-0.670067 2.53001 -1.44997 13.0336 2.57832 23.8162C3.85907 27.2578 5.41887 30.8139 7.08599 33.9549C7.94459 35.5934 10.2557 35.2357 10.642 33.3682C11.7797 28.1736 14.4199 24.5317 17.5037 24.5317C20.5017 24.5317 23.1204 28.0019 24.2867 32.9818C24.7017 34.7634 26.8983 35.1212 27.7855 33.5685C29.5671 30.5133 31.177 27.1219 32.4291 23.7876C36.4574 13.005 35.6775 2.53001 30.7048 0.39065Z" fill="white"/>
</svg>